<svg width="135" height="70" viewBox="0 0 135 70" fill="none" xmlns="http://www.w3.org/2000/svg">
<path fill-rule="evenodd" clip-rule="evenodd" d="M39.7341 37.7995H30.7055V0H39.7341V37.7995ZM18.5393 25.8803L18.6007 23.3749C17.9254 23.9714 16.759 24.3294 14.1807 24.8663C9.94494 25.7609 8.71717 26.8944 8.71717 28.9822C8.71717 30.8316 9.88355 31.786 11.9707 31.786C16.2679 31.786 18.4779 28.9228 18.5393 25.8803ZM27.5291 37.7995H19.6443C19.3373 37.1433 19.0917 35.7087 19.0303 34.814C17.4956 36.7228 14.4876 38.095 10.0063 38.095C3.0694 38.095 0 34.8737 0 29.624C0 21.9885 5.95473 20.3922 14.058 19.1992C17.4957 18.722 18.4779 18.0658 18.4779 16.2165C18.4779 14.5462 16.5135 13.6514 13.9966 13.6514C10.6202 13.6514 9.33106 15.1427 9.02413 17.3499H0.982285C1.10506 11.2653 4.54279 7.02986 14.4263 7.02986C24.1256 7.02986 27.4406 11.2056 27.4406 18.6026L27.5291 37.7995ZM67.8647 21.7071V17.8271H59.5773V25.8206C59.5773 28.8035 58.3495 30.4141 55.6484 30.4141C52.886 30.4141 51.7196 28.8035 51.7196 25.7609V13.89H67.8647V7.02986H51.7196V0H43.0025V26.1191C43.0025 32.502 46.3789 37.9305 55.4642 37.9305C61.1256 37.9305 64.5824 35.7168 66.3609 32.5226C64.5899 31.4808 63.406 29.5907 63.406 27.4318C63.406 24.7072 65.292 22.4104 67.8647 21.7071ZM72.8744 32.41C74.543 31.3479 75.645 29.5149 75.645 27.4318C75.645 24.3918 73.2971 21.8844 70.2674 21.5287C70.4301 12.6981 75.8086 7.02986 84.9967 7.02986C94.2662 7.02986 99.3001 12.5776 99.3001 23.4346V24.6873H79.1649C79.4103 28.386 81.7431 31.0701 85.1195 31.0701C87.3295 31.0701 89.3552 30.056 89.7848 28.505H98.9318C97.0901 34.5301 92.0562 37.9305 85.5492 37.9305C79.5701 37.9305 75.3452 36.0822 72.8744 32.41ZM79.3489 19.4974H90.3987C90.1534 15.6199 87.9434 13.89 84.8738 13.89C81.8045 13.89 79.656 15.7989 79.3489 19.4974ZM102.601 37.9305H111.502V21.8239C111.502 17.4096 113.651 15.6796 118.071 15.6796C118.808 15.6796 119.544 15.7393 120.281 15.8586V7.02986H119.422C116.352 7.02986 113.59 7.20883 110.95 10.4897V7.02986H102.601L102.601 37.9305ZM125.635 55.5525C125.635 60.7426 123.057 63.5461 119.558 63.5461C115.936 63.5461 113.542 60.6829 113.542 55.3141C113.542 49.5874 115.629 47.0818 119.558 47.0818C123.425 47.0818 125.635 49.7065 125.635 55.5525ZM125.512 69.8099H134.045V31.9763H125.469L125.328 44.0396C123.425 40.9376 120.417 39.6848 116.795 39.6848C108.999 39.6848 104.518 46.1274 104.518 54.8369C104.518 64.6796 109.85 69.8037 117.462 69.8037C120.593 69.8037 123.518 69.1324 125.512 66.3647V69.8099ZM101.222 69.8815H92.2596V51.6872C92.2596 47.9887 90.8478 46.7956 87.6556 46.7956C84.1564 46.7956 82.3761 48.5256 82.3761 52.1644V69.8815H78.9302H73.9717V39.7505H78.9137L81.8784 39.7543L81.9465 44.2305C83.6654 41.2477 86.6121 39.7564 91.032 39.7564C96.9252 39.7564 101.222 43.3952 101.222 49.1222V69.8815ZM65.8377 39.6789V69.8099H62.3418V51.3769C62.3418 45.6208 58.5237 41.0511 52.9405 39.6789H58.2346H65.8377ZM40.0578 41.8496C38.3887 40.5063 36.1578 39.6789 33.4564 39.6789C29.2822 39.6789 26.888 41.0508 25.3533 43.7949C23.2047 40.8123 20.9947 39.6789 16.9431 39.6789C13.0143 39.6789 10.2518 40.8717 8.41015 44.1527V39.6789H0V69.8037H8.90126V51.6691C8.90126 48.4478 10.436 47.0162 13.137 47.0162C16.0223 47.0162 17.3728 48.0899 17.3728 51.7884V69.8037H26.2741V51.8481C26.2741 48.5671 28.8524 47.1952 30.9396 47.1952C33.211 47.1952 34.8071 48.7462 34.8071 51.7287V59.2276C36.6119 54.8406 42.2195 52.8116 48.8674 51.7915C51.7938 51.3769 52.5864 50.7845 52.5864 49.1849C52.5864 47.7035 50.6355 47.1112 48.7455 47.1112C45.636 47.1112 44.5383 48.2962 44.3555 50.1328H35.6978C35.8055 46.5729 37.0345 43.6503 40.0578 41.8496ZM52.232 58.7985C51.562 59.5206 50.3679 60.8074 47.2248 60.03C43.5052 59.1101 40.4604 61.4872 41.4547 64.4721C42.3209 67.0723 45.5064 67.2825 47.7291 66.5941C49.4213 66.07 51.1744 65.0087 52.0901 62.1461C52.6877 60.278 52.6594 59.1247 52.6473 58.6299C52.6448 58.5301 52.6431 58.457 52.6472 58.4103C52.5261 58.4816 52.3944 58.6234 52.232 58.7985Z" fill="white"/>
</svg>
